<svg width="80" height="86" viewBox="0 0 80 86" fill="none" xmlns="http://www.w3.org/2000/svg">
<path d="M74.2857 38.7V17.2H57.1429V8.6H40V0H17.1429V12.9H5.71429V38.7H0L11.4286 86H68.5714L80 38.7H74.2857ZM62.0571 38.7C61.1429 41.323 59.4286 43.688 57.1429 45.666V28.466L68.5714 32.766V38.7H62.0571ZM68.5714 21.5V27.95L57.1429 23.65V21.5H68.5714ZM40 12.9H51.4286V27.95L40 32.25V12.9ZM40 37.066L51.4286 32.766V49.235C48.0571 50.74 44.1714 51.6 40 51.6V37.066ZM34.2857 50.998C29.7714 50.095 25.7143 48.246 22.8571 45.666V32.766L34.2857 28.466V50.998ZM22.8571 4.3H34.2857V23.65L28.5714 25.8V12.9H22.8571V4.3ZM11.4286 17.2H22.8571V27.95L17.1429 30.1V38.7H11.4286V17.2Z" fill="#B82201"/>
</svg>
