<svg width="87" height="86" viewBox="0 0 87 86" fill="none" xmlns="http://www.w3.org/2000/svg">
<path d="M79.0904 46.5833C79.0904 50.5608 75.9012 53.75 71.9237 53.75H14.5904C10.6487 53.75 7.42371 50.5608 7.42371 46.5833C7.42371 42.6058 10.6487 39.4167 14.5904 39.4167H46.8404L55.7987 46.5833L64.757 39.4167H71.9237C75.9012 39.4167 79.0904 42.6417 79.0904 46.5833ZM43.257 10.75C11.007 10.75 11.007 32.25 11.007 32.25H75.507C75.507 32.25 75.507 10.75 43.257 10.75ZM11.007 64.5C11.007 70.4483 15.8087 75.25 21.757 75.25H64.757C70.7054 75.25 75.507 70.4483 75.507 64.5V60.9167H11.007V64.5Z" fill="#B82201"/>
</svg>
