<svg width="80" height="86" viewBox="0 0 80 86" fill="none" xmlns="http://www.w3.org/2000/svg">
<g clip-path="url(#clip0_24_4540)">
<path d="M67.5 24.2643C66.25 12.6748 54.45 3.58334 40 3.58334C25.55 3.58334 13.75 12.6748 12.5 24.2643C5.45 25.2062 0 30.2024 0 36.3452C0 43.1433 6.7 48.631 15 48.631L40 89.5833L65 48.631C73.3 48.631 80 43.1433 80 36.3452C80 30.2024 74.55 25.2062 67.5 24.2643ZM40 71.2776L24.45 45.8053C24.75 45.6005 25 45.3957 25.4 45.191C29.65 47.3614 34.65 48.631 40 48.631C45.35 48.631 50.35 47.3614 54.6 45.191C55 45.3957 55.25 45.6005 55.55 45.8053L40 71.2776Z" fill="#B82201"/>
</g>
<defs>
<clipPath id="clip0_24_4540">
<rect width="80" height="86" fill="white"/>
</clipPath>
</defs>
</svg>
