<svg width="116" height="50" viewBox="0 0 116 50" fill="none" xmlns="http://www.w3.org/2000/svg">
<path d="M69.1634 27.84C68.4834 27.84 67.8684 27.69 67.3184 27.39C66.7784 27.08 66.3484 26.625 66.0284 26.025C65.7184 25.425 65.5634 24.675 65.5634 23.775C65.5634 22.875 65.7234 22.125 66.0434 21.525C66.3734 20.925 66.8084 20.475 67.3484 20.175C67.8984 19.875 68.5034 19.725 69.1634 19.725C69.9434 19.725 70.6334 19.895 71.2334 20.235C71.8334 20.575 72.3084 21.05 72.6584 21.66C73.0084 22.26 73.1834 22.965 73.1834 23.775C73.1834 24.585 73.0084 25.295 72.6584 25.905C72.3084 26.515 71.8334 26.99 71.2334 27.33C70.6334 27.67 69.9434 27.84 69.1634 27.84ZM64.9484 27.75V16.62H66.3884V21.915L66.2384 23.76L66.3284 25.605V27.75H64.9484ZM69.0434 26.58C69.5534 26.58 70.0084 26.465 70.4084 26.235C70.8184 26.005 71.1384 25.68 71.3684 25.26C71.6084 24.83 71.7284 24.335 71.7284 23.775C71.7284 23.205 71.6084 22.715 71.3684 22.305C71.1384 21.885 70.8184 21.56 70.4084 21.33C70.0084 21.1 69.5534 20.985 69.0434 20.985C68.5434 20.985 68.0884 21.1 67.6784 21.33C67.2784 21.56 66.9584 21.885 66.7184 22.305C66.4884 22.715 66.3734 23.205 66.3734 23.775C66.3734 24.335 66.4884 24.83 66.7184 25.26C66.9584 25.68 67.2784 26.005 67.6784 26.235C68.0884 26.465 68.5434 26.58 69.0434 26.58Z" fill="#571A05"/>
<path d="M78.518 27.84C77.838 27.84 77.238 27.715 76.718 27.465C76.208 27.215 75.808 26.835 75.518 26.325C75.238 25.805 75.098 25.155 75.098 24.375V19.8H76.538V24.21C76.538 24.99 76.723 25.575 77.093 25.965C77.473 26.355 78.003 26.55 78.683 26.55C79.183 26.55 79.618 26.45 79.988 26.25C80.358 26.04 80.643 25.74 80.843 25.35C81.043 24.95 81.143 24.47 81.143 23.91V19.8H82.583V27.75H81.218V25.605L81.443 26.175C81.183 26.705 80.793 27.115 80.273 27.405C79.753 27.695 79.168 27.84 78.518 27.84Z" fill="#571A05"/>
<path d="M85.3243 27.75V19.8H86.7044V21.96L86.5694 21.42C86.7894 20.87 87.1594 20.45 87.6794 20.16C88.1994 19.87 88.8393 19.725 89.5993 19.725V21.12C89.5393 21.11 89.4793 21.105 89.4193 21.105C89.3693 21.105 89.3193 21.105 89.2693 21.105C88.4993 21.105 87.8894 21.335 87.4394 21.795C86.9894 22.255 86.7644 22.92 86.7644 23.79V27.75H85.3243Z" fill="#571A05"/>
<path d="M94.7809 30.75C94.0509 30.75 93.3409 30.645 92.6509 30.435C91.9709 30.235 91.4159 29.945 90.9859 29.565L91.6759 28.455C92.0459 28.775 92.5009 29.025 93.0409 29.205C93.5809 29.395 94.1459 29.49 94.7359 29.49C95.6759 29.49 96.3659 29.27 96.8059 28.83C97.2459 28.39 97.4659 27.72 97.4659 26.82V25.14L97.6159 23.565L97.5409 21.975V19.8H98.9059V26.67C98.9059 28.07 98.5559 29.1 97.8559 29.76C97.1559 30.42 96.1309 30.75 94.7809 30.75ZM94.6009 27.42C93.8309 27.42 93.1409 27.26 92.5309 26.94C91.9309 26.61 91.4509 26.155 91.0909 25.575C90.7409 24.995 90.5659 24.325 90.5659 23.565C90.5659 22.795 90.7409 22.125 91.0909 21.555C91.4509 20.975 91.9309 20.525 92.5309 20.205C93.1409 19.885 93.8309 19.725 94.6009 19.725C95.2809 19.725 95.9009 19.865 96.4609 20.145C97.0209 20.415 97.4659 20.835 97.7959 21.405C98.1359 21.975 98.3059 22.695 98.3059 23.565C98.3059 24.425 98.1359 25.14 97.7959 25.71C97.4659 26.28 97.0209 26.71 96.4609 27C95.9009 27.28 95.2809 27.42 94.6009 27.42ZM94.7659 26.16C95.2959 26.16 95.7659 26.05 96.1759 25.83C96.5859 25.61 96.9059 25.305 97.1359 24.915C97.3759 24.525 97.4959 24.075 97.4959 23.565C97.4959 23.055 97.3759 22.605 97.1359 22.215C96.9059 21.825 96.5859 21.525 96.1759 21.315C95.7659 21.095 95.2959 20.985 94.7659 20.985C94.2359 20.985 93.7609 21.095 93.3409 21.315C92.9309 21.525 92.6059 21.825 92.3659 22.215C92.1359 22.605 92.0209 23.055 92.0209 23.565C92.0209 24.075 92.1359 24.525 92.3659 24.915C92.6059 25.305 92.9309 25.61 93.3409 25.83C93.7609 26.05 94.2359 26.16 94.7659 26.16Z" fill="#571A05"/>
<path d="M105.197 27.84C104.347 27.84 103.597 27.665 102.947 27.315C102.307 26.965 101.807 26.485 101.447 25.875C101.097 25.265 100.922 24.565 100.922 23.775C100.922 22.985 101.092 22.285 101.432 21.675C101.782 21.065 102.257 20.59 102.857 20.25C103.467 19.9 104.152 19.725 104.912 19.725C105.682 19.725 106.362 19.895 106.952 20.235C107.542 20.575 108.002 21.055 108.332 21.675C108.672 22.285 108.842 23 108.842 23.82C108.842 23.88 108.837 23.95 108.827 24.03C108.827 24.11 108.822 24.185 108.812 24.255H102.047V23.22H108.062L107.477 23.58C107.487 23.07 107.382 22.615 107.162 22.215C106.942 21.815 106.637 21.505 106.247 21.285C105.867 21.055 105.422 20.94 104.912 20.94C104.412 20.94 103.967 21.055 103.577 21.285C103.187 21.505 102.882 21.82 102.662 22.23C102.442 22.63 102.332 23.09 102.332 23.61V23.85C102.332 24.38 102.452 24.855 102.692 25.275C102.942 25.685 103.287 26.005 103.727 26.235C104.167 26.465 104.672 26.58 105.242 26.58C105.712 26.58 106.137 26.5 106.517 26.34C106.907 26.18 107.247 25.94 107.537 25.62L108.332 26.55C107.972 26.97 107.522 27.29 106.982 27.51C106.452 27.73 105.857 27.84 105.197 27.84Z" fill="#571A05"/>
<path d="M110.842 27.75V19.8H112.222V21.96L112.087 21.42C112.307 20.87 112.677 20.45 113.197 20.16C113.717 19.87 114.357 19.725 115.117 19.725V21.12C115.057 21.11 114.997 21.105 114.937 21.105C114.887 21.105 114.837 21.105 114.787 21.105C114.017 21.105 113.407 21.335 112.957 21.795C112.507 22.255 112.282 22.92 112.282 23.79V27.75H110.842Z" fill="#571A05"/>
<path d="M69.1934 37.725C69.8434 37.725 70.4134 37.85 70.9034 38.1C71.4034 38.35 71.7934 38.73 72.0734 39.24C72.3534 39.75 72.4934 40.395 72.4934 41.175V45.75H71.0534V41.34C71.0534 40.57 70.8634 39.99 70.4834 39.6C70.1134 39.21 69.5884 39.015 68.9084 39.015C68.3984 39.015 67.9534 39.115 67.5734 39.315C67.1934 39.515 66.8984 39.81 66.6884 40.2C66.4884 40.59 66.3884 41.075 66.3884 41.655V45.75H64.9484V34.62H66.3884V39.945L66.1034 39.375C66.3634 38.855 66.7634 38.45 67.3034 38.16C67.8434 37.87 68.4734 37.725 69.1934 37.725Z" fill="#571A05"/>
<path d="M78.5633 45.84C77.7633 45.84 77.0533 45.665 76.4333 45.315C75.8133 44.965 75.3233 44.485 74.9633 43.875C74.6033 43.255 74.4233 42.555 74.4233 41.775C74.4233 40.985 74.6033 40.285 74.9633 39.675C75.3233 39.065 75.8133 38.59 76.4333 38.25C77.0533 37.9 77.7633 37.725 78.5633 37.725C79.3533 37.725 80.0583 37.9 80.6783 38.25C81.3083 38.59 81.7983 39.065 82.1483 39.675C82.5083 40.275 82.6883 40.975 82.6883 41.775C82.6883 42.565 82.5083 43.265 82.1483 43.875C81.7983 44.485 81.3083 44.965 80.6783 45.315C80.0583 45.665 79.3533 45.84 78.5633 45.84ZM78.5633 44.58C79.0733 44.58 79.5283 44.465 79.9283 44.235C80.3383 44.005 80.6583 43.68 80.8883 43.26C81.1183 42.83 81.2333 42.335 81.2333 41.775C81.2333 41.205 81.1183 40.715 80.8883 40.305C80.6583 39.885 80.3383 39.56 79.9283 39.33C79.5283 39.1 79.0733 38.985 78.5633 38.985C78.0533 38.985 77.5983 39.1 77.1983 39.33C76.7983 39.56 76.4783 39.885 76.2383 40.305C75.9983 40.715 75.8783 41.205 75.8783 41.775C75.8783 42.335 75.9983 42.83 76.2383 43.26C76.4783 43.68 76.7983 44.005 77.1983 44.235C77.5983 44.465 78.0533 44.58 78.5633 44.58Z" fill="#571A05"/>
<path d="M88.0248 45.84C87.3448 45.84 86.7448 45.715 86.2248 45.465C85.7148 45.215 85.3148 44.835 85.0248 44.325C84.7448 43.805 84.6048 43.155 84.6048 42.375V37.8H86.0448V42.21C86.0448 42.99 86.2298 43.575 86.5998 43.965C86.9798 44.355 87.5098 44.55 88.1898 44.55C88.6898 44.55 89.1248 44.45 89.4948 44.25C89.8648 44.04 90.1498 43.74 90.3498 43.35C90.5498 42.95 90.6498 42.47 90.6498 41.91V37.8H92.0898V45.75H90.7248V43.605L90.9498 44.175C90.6898 44.705 90.2998 45.115 89.7798 45.405C89.2598 45.695 88.6748 45.84 88.0248 45.84Z" fill="#571A05"/>
<path d="M97.1112 45.84C96.4512 45.84 95.8212 45.75 95.2212 45.57C94.6312 45.39 94.1662 45.17 93.8262 44.91L94.4262 43.77C94.7662 44 95.1862 44.195 95.6862 44.355C96.1862 44.515 96.6962 44.595 97.2162 44.595C97.8862 44.595 98.3662 44.5 98.6562 44.31C98.9562 44.12 99.1062 43.855 99.1062 43.515C99.1062 43.265 99.0162 43.07 98.8362 42.93C98.6562 42.79 98.4162 42.685 98.1162 42.615C97.8262 42.545 97.5012 42.485 97.1412 42.435C96.7812 42.375 96.4212 42.305 96.0612 42.225C95.7012 42.135 95.3712 42.015 95.0712 41.865C94.7712 41.705 94.5312 41.49 94.3512 41.22C94.1712 40.94 94.0812 40.57 94.0812 40.11C94.0812 39.63 94.2162 39.21 94.4862 38.85C94.7562 38.49 95.1362 38.215 95.6262 38.025C96.1262 37.825 96.7162 37.725 97.3962 37.725C97.9162 37.725 98.4412 37.79 98.9712 37.92C99.5112 38.04 99.9512 38.215 100.291 38.445L99.6762 39.585C99.3162 39.345 98.9412 39.18 98.5512 39.09C98.1612 39 97.7712 38.955 97.3812 38.955C96.7512 38.955 96.2812 39.06 95.9712 39.27C95.6612 39.47 95.5062 39.73 95.5062 40.05C95.5062 40.32 95.5962 40.53 95.7762 40.68C95.9662 40.82 96.2062 40.93 96.4962 41.01C96.7962 41.09 97.1262 41.16 97.4862 41.22C97.8462 41.27 98.2062 41.34 98.5662 41.43C98.9262 41.51 99.2512 41.625 99.5412 41.775C99.8412 41.925 100.081 42.135 100.261 42.405C100.451 42.675 100.546 43.035 100.546 43.485C100.546 43.965 100.406 44.38 100.126 44.73C99.8462 45.08 99.4512 45.355 98.9412 45.555C98.4312 45.745 97.8212 45.84 97.1112 45.84Z" fill="#571A05"/>
<path d="M105.886 45.84C105.036 45.84 104.286 45.665 103.636 45.315C102.996 44.965 102.496 44.485 102.136 43.875C101.786 43.265 101.611 42.565 101.611 41.775C101.611 40.985 101.781 40.285 102.121 39.675C102.471 39.065 102.946 38.59 103.546 38.25C104.156 37.9 104.841 37.725 105.601 37.725C106.371 37.725 107.051 37.895 107.641 38.235C108.231 38.575 108.691 39.055 109.021 39.675C109.361 40.285 109.531 41 109.531 41.82C109.531 41.88 109.526 41.95 109.516 42.03C109.516 42.11 109.511 42.185 109.501 42.255H102.736V41.22H108.751L108.166 41.58C108.176 41.07 108.071 40.615 107.851 40.215C107.631 39.815 107.326 39.505 106.936 39.285C106.556 39.055 106.111 38.94 105.601 38.94C105.101 38.94 104.656 39.055 104.266 39.285C103.876 39.505 103.571 39.82 103.351 40.23C103.131 40.63 103.021 41.09 103.021 41.61V41.85C103.021 42.38 103.141 42.855 103.381 43.275C103.631 43.685 103.976 44.005 104.416 44.235C104.856 44.465 105.361 44.58 105.931 44.58C106.401 44.58 106.826 44.5 107.206 44.34C107.596 44.18 107.936 43.94 108.226 43.62L109.021 44.55C108.661 44.97 108.211 45.29 107.671 45.51C107.141 45.73 106.546 45.84 105.886 45.84Z" fill="#571A05"/>
<path d="M54.3373 27.5C54.3373 30.5525 51.9193 33 48.9035 33H5.43373C2.44518 33 0 30.5525 0 27.5C0 24.4475 2.44518 22 5.43373 22H29.8855L36.6777 27.5L43.4698 22H48.9035C51.9193 22 54.3373 24.475 54.3373 27.5ZM27.1686 0C2.71686 0 2.71686 16.5 2.71686 16.5H51.6204C51.6204 16.5 51.6204 0 27.1686 0ZM2.71686 41.25C2.71686 45.815 6.35746 49.5 10.8675 49.5H43.4698C47.9798 49.5 51.6204 45.815 51.6204 41.25V38.5H2.71686V41.25Z" fill="#FFDCAC"/>
</svg>
