<svg width="86" height="86" viewBox="0 0 86 86" fill="none" xmlns="http://www.w3.org/2000/svg">
<path d="M43 55.9C40.4657 55.9 38.0352 54.9939 36.2432 53.3811C34.4512 51.7683 33.4444 49.5809 33.4444 47.3C33.4444 42.527 37.7444 38.7 43 38.7C45.5343 38.7 47.9648 39.6061 49.7568 41.2189C51.5488 42.8317 52.5556 45.0191 52.5556 47.3C52.5556 49.5809 51.5488 51.7683 49.7568 53.3811C47.9648 54.9939 45.5343 55.9 43 55.9ZM19.1111 21.5C19.1111 16.727 23.3633 12.9 28.6667 12.9C31.201 12.9 33.6314 13.8061 35.4235 15.4189C37.2155 17.0317 38.2222 19.2191 38.2222 21.5C38.2222 23.7809 37.2155 25.9683 35.4235 27.5811C33.6314 29.1939 31.201 30.1 28.6667 30.1C23.3633 30.1 19.1111 26.23 19.1111 21.5ZM43 0C25.9433 0 10.6544 6.622 0 17.2L43 86L86 17.2C75.3933 6.622 60.0567 0 43 0Z" fill="#B82201"/>
</svg>
